<mxfile host="65bd71144e">
    <diagram id="AdPL8HplRV7L0H6gTFYW" name="Page-1">
        <mxGraphModel dx="1822" dy="1107" grid="1" gridSize="10" guides="1" tooltips="1" connect="1" arrows="1" fold="1" page="1" pageScale="1" pageWidth="827" pageHeight="1169" math="0" shadow="0">
            <root>
                <mxCell id="0"/>
                <mxCell id="1" parent="0"/>
                <mxCell id="2" value="&lt;b style=&quot;font-weight: normal&quot; id=&quot;docs-internal-guid-6d9293d8-7fff-94bc-286b-6fc40ae59a37&quot;&gt;&lt;span style=&quot;font-size: 11pt; font-family: arial; color: rgb(0, 0, 0); background-color: transparent; font-weight: 400; font-style: normal; font-variant: normal; text-decoration: none; vertical-align: baseline;&quot;&gt;&lt;span style=&quot;border: none ; display: inline-block ; overflow: hidden ; width: 383px ; height: 407px&quot;&gt;&lt;img src=&quot;https://lh4.googleusercontent.com/bEMVJLcohUOc6gtIlwD3hnBCTqBjiJBuzsJdpK8LOQjjyRdqDTygU0335dKK82c7SyOrst2qH7JeFs7t1sVTcQ--Hf1U37zS-j4BezUQ9Ys8QzCSzoUv8Dcn4O5bhlGVwd8Zp0880iCFQ8UGvQ&quot; width=&quot;383&quot; height=&quot;496.94827586206895&quot; style=&quot;margin-left: 0px ; margin-top: -66.34482758620689px&quot;&gt;&lt;/span&gt;&lt;/span&gt;&lt;/b&gt;" style="text;whiteSpace=wrap;html=1;" vertex="1" parent="1">
                    <mxGeometry x="120" y="160" width="650" height="640" as="geometry"/>
                </mxCell>
            </root>
        </mxGraphModel>
    </diagram>
</mxfile>